<mxfile host="app.diagrams.net" modified="2022-12-08T13:17:52.024Z" agent="5.0 (Windows NT 10.0; Win64; x64) AppleWebKit/537.36 (KHTML, like Gecko) Chrome/108.0.0.0 Safari/537.36" etag="nydThajv1Q_6blNqs8_n" version="20.6.0" type="github">
  <diagram id="R2lEEEUBdFMjLlhIrx00" name="Page-1">
    <mxGraphModel dx="1422" dy="800" grid="0" gridSize="10" guides="1" tooltips="1" connect="1" arrows="1" fold="1" page="1" pageScale="1" pageWidth="850" pageHeight="1100" math="0" shadow="0" extFonts="Permanent Marker^https://fonts.googleapis.com/css?family=Permanent+Marker">
      <root>
        <mxCell id="0" />
        <mxCell id="1" parent="0" />
        <mxCell id="fLJgtqy2DdRQkLBZyR05-1" style="edgeStyle=orthogonalEdgeStyle;rounded=0;orthogonalLoop=1;jettySize=auto;html=1;exitX=0.5;exitY=0;exitDx=0;exitDy=0;endArrow=diamond;endFill=0;endSize=19;" parent="1" source="fLJgtqy2DdRQkLBZyR05-3" target="fLJgtqy2DdRQkLBZyR05-13" edge="1">
          <mxGeometry relative="1" as="geometry">
            <Array as="points">
              <mxPoint x="308" y="520" />
              <mxPoint x="202" y="520" />
            </Array>
          </mxGeometry>
        </mxCell>
        <mxCell id="fLJgtqy2DdRQkLBZyR05-2" style="edgeStyle=orthogonalEdgeStyle;rounded=0;orthogonalLoop=1;jettySize=auto;html=1;exitX=0.5;exitY=0;exitDx=0;exitDy=0;endArrow=diamond;endFill=0;endSize=19;" parent="1" edge="1">
          <mxGeometry relative="1" as="geometry">
            <mxPoint x="307.5" y="556" as="sourcePoint" />
            <mxPoint x="467" y="469" as="targetPoint" />
            <Array as="points">
              <mxPoint x="308" y="520" />
              <mxPoint x="467" y="520" />
            </Array>
          </mxGeometry>
        </mxCell>
        <mxCell id="fLJgtqy2DdRQkLBZyR05-3" value="Car" style="swimlane;fontStyle=1;align=center;verticalAlign=top;childLayout=stackLayout;horizontal=1;startSize=26;horizontalStack=0;resizeParent=1;resizeParentMax=0;resizeLast=0;collapsible=1;marginBottom=0;" parent="1" vertex="1">
          <mxGeometry x="133" y="557" width="349" height="302" as="geometry" />
        </mxCell>
        <mxCell id="fLJgtqy2DdRQkLBZyR05-4" value="+ CarId: int {+Get, -Set}" style="text;strokeColor=none;fillColor=none;align=left;verticalAlign=top;spacingLeft=4;spacingRight=4;overflow=hidden;rotatable=0;points=[[0,0.5],[1,0.5]];portConstraint=eastwest;" parent="fLJgtqy2DdRQkLBZyR05-3" vertex="1">
          <mxGeometry y="26" width="349" height="26" as="geometry" />
        </mxCell>
        <mxCell id="_7seOtBiEEPli7Lg9RWI-2" value="+ Fuel: Fuel {+Get, -Set}" style="text;strokeColor=none;fillColor=none;align=left;verticalAlign=top;spacingLeft=4;spacingRight=4;overflow=hidden;rotatable=0;points=[[0,0.5],[1,0.5]];portConstraint=eastwest;" vertex="1" parent="fLJgtqy2DdRQkLBZyR05-3">
          <mxGeometry y="52" width="349" height="26" as="geometry" />
        </mxCell>
        <mxCell id="fLJgtqy2DdRQkLBZyR05-5" value="+ Variant: string{+Get, -Set}" style="text;strokeColor=none;fillColor=none;align=left;verticalAlign=top;spacingLeft=4;spacingRight=4;overflow=hidden;rotatable=0;points=[[0,0.5],[1,0.5]];portConstraint=eastwest;" parent="fLJgtqy2DdRQkLBZyR05-3" vertex="1">
          <mxGeometry y="78" width="349" height="26" as="geometry" />
        </mxCell>
        <mxCell id="fLJgtqy2DdRQkLBZyR05-6" value="+ FuelUsagePerKM: double{+Get, -Set}" style="text;strokeColor=none;fillColor=none;align=left;verticalAlign=top;spacingLeft=4;spacingRight=4;overflow=hidden;rotatable=0;points=[[0,0.5],[1,0.5]];portConstraint=eastwest;" parent="fLJgtqy2DdRQkLBZyR05-3" vertex="1">
          <mxGeometry y="104" width="349" height="26" as="geometry" />
        </mxCell>
        <mxCell id="fLJgtqy2DdRQkLBZyR05-7" value="+ Price: double{+Get, -Set}" style="text;strokeColor=none;fillColor=none;align=left;verticalAlign=top;spacingLeft=4;spacingRight=4;overflow=hidden;rotatable=0;points=[[0,0.5],[1,0.5]];portConstraint=eastwest;" parent="fLJgtqy2DdRQkLBZyR05-3" vertex="1">
          <mxGeometry y="130" width="349" height="26" as="geometry" />
        </mxCell>
        <mxCell id="fLJgtqy2DdRQkLBZyR05-8" value="+ ReleaseYear: DateTime{+Get, -Set}" style="text;strokeColor=none;fillColor=none;align=left;verticalAlign=top;spacingLeft=4;spacingRight=4;overflow=hidden;rotatable=0;points=[[0,0.5],[1,0.5]];portConstraint=eastwest;" parent="fLJgtqy2DdRQkLBZyR05-3" vertex="1">
          <mxGeometry y="156" width="349" height="26" as="geometry" />
        </mxCell>
        <mxCell id="fLJgtqy2DdRQkLBZyR05-9" value="+ Model: string{+Get, -Set}" style="text;strokeColor=none;fillColor=none;align=left;verticalAlign=top;spacingLeft=4;spacingRight=4;overflow=hidden;rotatable=0;points=[[0,0.5],[1,0.5]];portConstraint=eastwest;" parent="fLJgtqy2DdRQkLBZyR05-3" vertex="1">
          <mxGeometry y="182" width="349" height="26" as="geometry" />
        </mxCell>
        <mxCell id="fLJgtqy2DdRQkLBZyR05-10" value="+ Brand: Brand{+Get, -Set}" style="text;strokeColor=none;fillColor=none;align=left;verticalAlign=top;spacingLeft=4;spacingRight=4;overflow=hidden;rotatable=0;points=[[0,0.5],[1,0.5]];portConstraint=eastwest;" parent="fLJgtqy2DdRQkLBZyR05-3" vertex="1">
          <mxGeometry y="208" width="349" height="26" as="geometry" />
        </mxCell>
        <mxCell id="fLJgtqy2DdRQkLBZyR05-11" value="" style="line;strokeWidth=1;fillColor=none;align=left;verticalAlign=middle;spacingTop=-1;spacingLeft=3;spacingRight=3;rotatable=0;labelPosition=right;points=[];portConstraint=eastwest;" parent="fLJgtqy2DdRQkLBZyR05-3" vertex="1">
          <mxGeometry y="234" width="349" height="8" as="geometry" />
        </mxCell>
        <mxCell id="fLJgtqy2DdRQkLBZyR05-12" value="+ Car(string variant,Fuel fuel, double fuelUsage,&#xa; double price, DateTime releaseYear, string model, Brand brand)" style="text;strokeColor=none;fillColor=none;align=left;verticalAlign=top;spacingLeft=4;spacingRight=4;overflow=hidden;rotatable=0;points=[[0,0.5],[1,0.5]];portConstraint=eastwest;" parent="fLJgtqy2DdRQkLBZyR05-3" vertex="1">
          <mxGeometry y="242" width="349" height="60" as="geometry" />
        </mxCell>
        <mxCell id="fLJgtqy2DdRQkLBZyR05-13" value="«Enum»&lt;br&gt;&lt;b&gt;Brand&lt;/b&gt;" style="html=1;dropTarget=0;" parent="1" vertex="1">
          <mxGeometry x="112" y="366" width="180" height="90" as="geometry" />
        </mxCell>
        <mxCell id="fLJgtqy2DdRQkLBZyR05-14" value="" style="shape=module;jettyWidth=8;jettyHeight=4;" parent="fLJgtqy2DdRQkLBZyR05-13" vertex="1">
          <mxGeometry x="1" width="20" height="20" relative="1" as="geometry">
            <mxPoint x="-27" y="7" as="offset" />
          </mxGeometry>
        </mxCell>
        <mxCell id="fLJgtqy2DdRQkLBZyR05-15" value="«Enum»&lt;br&gt;&lt;b&gt;FuelType&lt;/b&gt;" style="html=1;dropTarget=0;" parent="1" vertex="1">
          <mxGeometry x="377" y="197" width="180" height="90" as="geometry" />
        </mxCell>
        <mxCell id="fLJgtqy2DdRQkLBZyR05-16" value="" style="shape=module;jettyWidth=8;jettyHeight=4;" parent="fLJgtqy2DdRQkLBZyR05-15" vertex="1">
          <mxGeometry x="1" width="20" height="20" relative="1" as="geometry">
            <mxPoint x="-27" y="7" as="offset" />
          </mxGeometry>
        </mxCell>
        <mxCell id="fLJgtqy2DdRQkLBZyR05-17" style="edgeStyle=orthogonalEdgeStyle;rounded=0;orthogonalLoop=1;jettySize=auto;html=1;exitX=0.5;exitY=0;exitDx=0;exitDy=0;endArrow=diamond;endFill=0;endSize=19;" parent="1" source="fLJgtqy2DdRQkLBZyR05-18" target="fLJgtqy2DdRQkLBZyR05-15" edge="1">
          <mxGeometry relative="1" as="geometry" />
        </mxCell>
        <mxCell id="fLJgtqy2DdRQkLBZyR05-18" value="Fuel" style="swimlane;fontStyle=0;childLayout=stackLayout;horizontal=1;startSize=26;fillColor=none;horizontalStack=0;resizeParent=1;resizeParentMax=0;resizeLast=0;collapsible=1;marginBottom=0;" parent="1" vertex="1">
          <mxGeometry x="325" y="358" width="284" height="112" as="geometry" />
        </mxCell>
        <mxCell id="fLJgtqy2DdRQkLBZyR05-19" value="+ FuelType: FuelType  {+Get, -Set]" style="text;strokeColor=none;fillColor=none;align=left;verticalAlign=top;spacingLeft=4;spacingRight=4;overflow=hidden;rotatable=0;points=[[0,0.5],[1,0.5]];portConstraint=eastwest;" parent="fLJgtqy2DdRQkLBZyR05-18" vertex="1">
          <mxGeometry y="26" width="284" height="26" as="geometry" />
        </mxCell>
        <mxCell id="fLJgtqy2DdRQkLBZyR05-20" value="+ PricePerUnit: double {+Get, -Set}" style="text;strokeColor=none;fillColor=none;align=left;verticalAlign=top;spacingLeft=4;spacingRight=4;overflow=hidden;rotatable=0;points=[[0,0.5],[1,0.5]];portConstraint=eastwest;" parent="fLJgtqy2DdRQkLBZyR05-18" vertex="1">
          <mxGeometry y="52" width="284" height="26" as="geometry" />
        </mxCell>
        <mxCell id="fLJgtqy2DdRQkLBZyR05-21" value="" style="line;strokeWidth=1;fillColor=none;align=left;verticalAlign=middle;spacingTop=-1;spacingLeft=3;spacingRight=3;rotatable=0;labelPosition=right;points=[];portConstraint=eastwest;" parent="fLJgtqy2DdRQkLBZyR05-18" vertex="1">
          <mxGeometry y="78" width="284" height="8" as="geometry" />
        </mxCell>
        <mxCell id="fLJgtqy2DdRQkLBZyR05-22" value="+ Fuel(FuelType type, double price)" style="text;strokeColor=none;fillColor=none;align=left;verticalAlign=top;spacingLeft=4;spacingRight=4;overflow=hidden;rotatable=0;points=[[0,0.5],[1,0.5]];portConstraint=eastwest;" parent="fLJgtqy2DdRQkLBZyR05-18" vertex="1">
          <mxGeometry y="86" width="284" height="26" as="geometry" />
        </mxCell>
        <mxCell id="fLJgtqy2DdRQkLBZyR05-23" style="rounded=0;orthogonalLoop=1;jettySize=auto;html=1;dashed=1;startArrow=block;startFill=0;endArrow=none;endFill=0;startSize=19;endSize=19;exitX=0.543;exitY=1.021;exitDx=0;exitDy=0;exitPerimeter=0;entryX=0.5;entryY=0;entryDx=0;entryDy=0;edgeStyle=orthogonalEdgeStyle;" parent="1" source="fLJgtqy2DdRQkLBZyR05-29" target="fLJgtqy2DdRQkLBZyR05-25" edge="1">
          <mxGeometry relative="1" as="geometry">
            <mxPoint x="342" y="1151" as="sourcePoint" />
            <mxPoint x="406" y="1304" as="targetPoint" />
          </mxGeometry>
        </mxCell>
        <mxCell id="fLJgtqy2DdRQkLBZyR05-24" style="rounded=0;orthogonalLoop=1;jettySize=auto;html=1;startArrow=none;startFill=0;endArrow=open;endFill=0;startSize=19;endSize=19;exitX=0.5;exitY=0;exitDx=0;exitDy=0;edgeStyle=orthogonalEdgeStyle;" parent="1" source="fLJgtqy2DdRQkLBZyR05-26" target="fLJgtqy2DdRQkLBZyR05-3" edge="1">
          <mxGeometry relative="1" as="geometry">
            <mxPoint x="276" y="574" as="targetPoint" />
            <mxPoint x="348" y="944" as="sourcePoint" />
          </mxGeometry>
        </mxCell>
        <mxCell id="fLJgtqy2DdRQkLBZyR05-25" value="&lt;p style=&quot;margin:0px;margin-top:4px;text-align:center;&quot;&gt;&lt;i&gt;&amp;lt;&amp;lt;Interface&amp;gt;&amp;gt;&lt;/i&gt;&lt;br&gt;&lt;b&gt;IFetchCarFromDb&lt;/b&gt;&lt;/p&gt;&lt;hr size=&quot;1&quot;&gt;&lt;p style=&quot;margin:0px;margin-left:4px;&quot;&gt;&lt;/p&gt;&lt;p style=&quot;margin:0px;margin-left:4px;&quot;&gt;+ GetAllCars(&lt;span style=&quot;background-color: initial;&quot;&gt;): List&amp;lt;Car&amp;gt;&lt;/span&gt;&lt;/p&gt;&lt;p style=&quot;margin:0px;margin-left:4px;&quot;&gt;&lt;span style=&quot;background-color: initial;&quot;&gt;+ GetAllBrands() : List&amp;lt;Bramd&amp;gt;&lt;/span&gt;&lt;/p&gt;&lt;p style=&quot;margin:0px;margin-left:4px;&quot;&gt;&lt;span style=&quot;background-color: initial;&quot;&gt;+ GetModelsByBrand(Brand brand): List&amp;lt;string&amp;gt;&lt;/span&gt;&lt;/p&gt;&lt;p style=&quot;margin:0px;margin-left:4px;&quot;&gt;&lt;span style=&quot;background-color: initial;&quot;&gt;+ GetVariantByModel(string model): List&amp;lt;string&amp;gt;&lt;/span&gt;&lt;/p&gt;&lt;p style=&quot;margin:0px;margin-left:4px;&quot;&gt;&lt;span style=&quot;background-color: initial;&quot;&gt;+ GetYears(Brand?, [string], [string]): List&amp;lt;int&amp;gt;&lt;/span&gt;&lt;/p&gt;" style="verticalAlign=top;align=left;overflow=fill;fontSize=12;fontFamily=Helvetica;html=1;" parent="1" vertex="1">
          <mxGeometry x="181" y="1167" width="278" height="123" as="geometry" />
        </mxCell>
        <mxCell id="fLJgtqy2DdRQkLBZyR05-26" value="MsSqlConnection" style="swimlane;fontStyle=1;align=center;verticalAlign=top;childLayout=stackLayout;horizontal=1;startSize=26;horizontalStack=0;resizeParent=1;resizeParentMax=0;resizeLast=0;collapsible=1;marginBottom=0;" parent="1" vertex="1">
          <mxGeometry x="161" y="960" width="293" height="134" as="geometry" />
        </mxCell>
        <mxCell id="fLJgtqy2DdRQkLBZyR05-27" value="- connection: SqlConnection&#xa;- command: SqlCommand&#xa;- config : IConfiguration" style="text;strokeColor=none;fillColor=none;align=left;verticalAlign=top;spacingLeft=4;spacingRight=4;overflow=hidden;rotatable=0;points=[[0,0.5],[1,0.5]];portConstraint=eastwest;" parent="fLJgtqy2DdRQkLBZyR05-26" vertex="1">
          <mxGeometry y="26" width="293" height="52" as="geometry" />
        </mxCell>
        <mxCell id="fLJgtqy2DdRQkLBZyR05-28" value="" style="line;strokeWidth=1;fillColor=none;align=left;verticalAlign=middle;spacingTop=-1;spacingLeft=3;spacingRight=3;rotatable=0;labelPosition=right;points=[];portConstraint=eastwest;" parent="fLJgtqy2DdRQkLBZyR05-26" vertex="1">
          <mxGeometry y="78" width="293" height="8" as="geometry" />
        </mxCell>
        <mxCell id="fLJgtqy2DdRQkLBZyR05-29" value="+ MsSqlConnection(IConfiguration config)&#xa;- GetConnection(string connName) : SqlConnection" style="text;strokeColor=none;fillColor=none;align=left;verticalAlign=top;spacingLeft=4;spacingRight=4;overflow=hidden;rotatable=0;points=[[0,0.5],[1,0.5]];portConstraint=eastwest;" parent="fLJgtqy2DdRQkLBZyR05-26" vertex="1">
          <mxGeometry y="86" width="293" height="48" as="geometry" />
        </mxCell>
        <mxCell id="fLJgtqy2DdRQkLBZyR05-48" style="edgeStyle=orthogonalEdgeStyle;rounded=0;orthogonalLoop=1;jettySize=auto;html=1;exitX=0.5;exitY=0;exitDx=0;exitDy=0;endArrow=block;endFill=0;endSize=19;" parent="1" source="fLJgtqy2DdRQkLBZyR05-33" target="fLJgtqy2DdRQkLBZyR05-49" edge="1">
          <mxGeometry relative="1" as="geometry">
            <mxPoint x="871.666666666667" y="311.33333333333337" as="targetPoint" />
          </mxGeometry>
        </mxCell>
        <mxCell id="fLJgtqy2DdRQkLBZyR05-33" value="HomeController" style="swimlane;fontStyle=1;align=center;verticalAlign=top;childLayout=stackLayout;horizontal=1;startSize=26;horizontalStack=0;resizeParent=1;resizeParentMax=0;resizeLast=0;collapsible=1;marginBottom=0;" parent="1" vertex="1">
          <mxGeometry x="645" y="539" width="431" height="414" as="geometry" />
        </mxCell>
        <mxCell id="fLJgtqy2DdRQkLBZyR05-34" value="- readonly _logger : ILogger&lt;HomeController&gt;" style="text;strokeColor=none;fillColor=none;align=left;verticalAlign=top;spacingLeft=4;spacingRight=4;overflow=hidden;rotatable=0;points=[[0,0.5],[1,0.5]];portConstraint=eastwest;" parent="fLJgtqy2DdRQkLBZyR05-33" vertex="1">
          <mxGeometry y="26" width="431" height="26" as="geometry" />
        </mxCell>
        <mxCell id="fLJgtqy2DdRQkLBZyR05-35" value="- readonly dbConnector : IFetchCarFromDb" style="text;strokeColor=none;fillColor=none;align=left;verticalAlign=top;spacingLeft=4;spacingRight=4;overflow=hidden;rotatable=0;points=[[0,0.5],[1,0.5]];portConstraint=eastwest;" parent="fLJgtqy2DdRQkLBZyR05-33" vertex="1">
          <mxGeometry y="52" width="431" height="26" as="geometry" />
        </mxCell>
        <mxCell id="fLJgtqy2DdRQkLBZyR05-36" value="- cars : List&lt;Car&gt;" style="text;strokeColor=none;fillColor=none;align=left;verticalAlign=top;spacingLeft=4;spacingRight=4;overflow=hidden;rotatable=0;points=[[0,0.5],[1,0.5]];portConstraint=eastwest;" parent="fLJgtqy2DdRQkLBZyR05-33" vertex="1">
          <mxGeometry y="78" width="431" height="26" as="geometry" />
        </mxCell>
        <mxCell id="fLJgtqy2DdRQkLBZyR05-37" value="- onePageOfCars : IPagedList&lt;Car&gt;" style="text;strokeColor=none;fillColor=none;align=left;verticalAlign=top;spacingLeft=4;spacingRight=4;overflow=hidden;rotatable=0;points=[[0,0.5],[1,0.5]];portConstraint=eastwest;" parent="fLJgtqy2DdRQkLBZyR05-33" vertex="1">
          <mxGeometry y="104" width="431" height="26" as="geometry" />
        </mxCell>
        <mxCell id="fLJgtqy2DdRQkLBZyR05-38" value="- pageNumber : int" style="text;strokeColor=none;fillColor=none;align=left;verticalAlign=top;spacingLeft=4;spacingRight=4;overflow=hidden;rotatable=0;points=[[0,0.5],[1,0.5]];portConstraint=eastwest;" parent="fLJgtqy2DdRQkLBZyR05-33" vertex="1">
          <mxGeometry y="130" width="431" height="26" as="geometry" />
        </mxCell>
        <mxCell id="fLJgtqy2DdRQkLBZyR05-41" value="" style="line;strokeWidth=1;fillColor=none;align=left;verticalAlign=middle;spacingTop=-1;spacingLeft=3;spacingRight=3;rotatable=0;labelPosition=right;points=[];portConstraint=eastwest;" parent="fLJgtqy2DdRQkLBZyR05-33" vertex="1">
          <mxGeometry y="156" width="431" height="8" as="geometry" />
        </mxCell>
        <mxCell id="fLJgtqy2DdRQkLBZyR05-42" value="+ HomeController(ILogger&lt;HomeController&gt; logger, IFetchCarFromDb fetch)&#xa;+ Index(int? page) : IActionresult&#xa;+ ClearFilters() : ActionResult&#xa;+ Index (int carId) : ActionResult&#xa;+ Error() : IActionResult &#xa;+ GetAllBrands() : ActionResult&#xa;- FilterCars(List&lt;Car&gt; cars) : void&#xa;+ SelectBrand(Brand brand) : ActionResult&#xa;- SetAvailableModel(Brand brand): void&#xa;+ SelectModel(string model) : Actionresult&#xa;- SetAvailableVariants(string variant = &quot;&quot;) : ActionResult&#xa;+ SelectVariant(string variant) : ActionResult&#xa;+ SelectYear(int year) : ActionResult&#xa;+ SetKmPerYear(int km) : ActionResult&#xa;+ SetOwnership(string own) : ActionResult&#xa;+ ResetButtons(): viod" style="text;strokeColor=none;fillColor=none;align=left;verticalAlign=top;spacingLeft=4;spacingRight=4;overflow=hidden;rotatable=0;points=[[0,0.5],[1,0.5]];portConstraint=eastwest;" parent="fLJgtqy2DdRQkLBZyR05-33" vertex="1">
          <mxGeometry y="164" width="431" height="250" as="geometry" />
        </mxCell>
        <mxCell id="fLJgtqy2DdRQkLBZyR05-44" style="edgeStyle=orthogonalEdgeStyle;rounded=0;orthogonalLoop=1;jettySize=auto;html=1;endArrow=diamond;endFill=0;endSize=19;" parent="1" source="fLJgtqy2DdRQkLBZyR05-33" target="fLJgtqy2DdRQkLBZyR05-3" edge="1">
          <mxGeometry relative="1" as="geometry">
            <mxPoint x="317.5" y="566" as="sourcePoint" />
            <mxPoint x="477" y="479" as="targetPoint" />
            <Array as="points">
              <mxPoint x="582" y="695" />
              <mxPoint x="582" y="695" />
            </Array>
          </mxGeometry>
        </mxCell>
        <mxCell id="fLJgtqy2DdRQkLBZyR05-47" style="rounded=0;orthogonalLoop=1;jettySize=auto;html=1;exitX=0;exitY=0.5;exitDx=0;exitDy=0;endArrow=diamond;endFill=0;endSize=19;entryX=1.007;entryY=0.788;entryDx=0;entryDy=0;entryPerimeter=0;edgeStyle=orthogonalEdgeStyle;" parent="1" source="fLJgtqy2DdRQkLBZyR05-42" target="fLJgtqy2DdRQkLBZyR05-27" edge="1">
          <mxGeometry relative="1" as="geometry">
            <mxPoint x="494" y="985" as="targetPoint" />
          </mxGeometry>
        </mxCell>
        <mxCell id="fLJgtqy2DdRQkLBZyR05-49" value="&amp;lt;&amp;lt;Class&amp;gt;&amp;gt;&lt;br&gt;Controller" style="html=1;dropTarget=0;" parent="1" vertex="1">
          <mxGeometry x="770.5" y="302" width="180" height="90" as="geometry" />
        </mxCell>
        <mxCell id="fLJgtqy2DdRQkLBZyR05-50" value="" style="shape=module;jettyWidth=8;jettyHeight=4;" parent="fLJgtqy2DdRQkLBZyR05-49" vertex="1">
          <mxGeometry x="1" width="20" height="20" relative="1" as="geometry">
            <mxPoint x="-27" y="7" as="offset" />
          </mxGeometry>
        </mxCell>
      </root>
    </mxGraphModel>
  </diagram>
</mxfile>
